<?xml version="1.0" encoding="UTF-8"?>
<svg width="158px" height="66px" viewBox="0 0 158 66" version="1.1" xmlns="http://www.w3.org/2000/svg" xmlns:xlink="http://www.w3.org/1999/xlink">
    <!-- Generator: Sketch 61.2 (89653) - https://sketch.com -->
    <title>Page 1 Copy</title>
    <desc>Created with Sketch.</desc>
    <defs>
        <polygon id="path-1" points="19.7803922 21.7360542 19.7803922 0.160829883 0.21074554 0.160829883 0.21074554 21.7360542 19.7803922 21.7360542"></polygon>
        <polygon id="path-3" points="36.890379 65.7488501 0 65.7488501 0 0.114639021 36.890379 0.114639021"></polygon>
    </defs>
    <g id="Welcome" stroke="none" stroke-width="1" fill="none" fill-rule="evenodd">
        <g id="Artboard-2" transform="translate(-32.000000, -27.000000)">
            <g id="Page-1-Copy" transform="translate(32.000000, 27.000000)">
                <path d="M55.9105044,32.0853613 L54.2423746,32.070664 C53.6138223,32.070664 53.0004464,31.9922786 52.4026683,31.8348687 C52.0409661,31.7371 51.8590612,30.8514298 51.8590612,29.1776452 L51.8590612,12.3017733 C51.9971234,11.029501 52.8286589,10.0156025 54.3665253,9.26561585 C55.8812057,8.51392513 58.4240812,8.13456521 61.9985245,8.13158315 L62,5.03152458 C58.650672,5.03152458 55.9758468,5.72400021 53.9717304,7.11193354 C53.0586222,7.74434208 52.3560854,8.47324139 51.8590612,9.3011875 L51.8590612,5 L45,6.41732787 L45,7.31812131 L46.4116079,7.05250546 C47.4202004,6.85718089 48.0719387,6.75749507 48.3664013,6.75749507 C48.613438,6.75749507 48.7890195,6.94600351 48.8929351,7.32387241 C48.9972722,7.70472336 49.0487031,8.36205336 49.0487031,9.29841845 L49.0487031,29.1776452 C49.0487031,30.8514298 48.8703814,31.7371 48.5095224,31.8348687 C47.9106904,31.9922786 47.2960497,32.070664 46.6683405,32.070664 L45,32.0853613 L45,33 L55.9105044,33 L55.9105044,32.0853613 Z" id="Fill-1" fill="#DE0007"></path>
                <path d="M69.9565681,27.9369771 C71.3189947,25.8921732 72,23.9732692 72,20.5596852 C72,17.0932517 71.321282,15.1443521 69.9663414,13.086897 C68.6097372,11.0294418 66.7875541,10 64.4997921,10 C62.2132777,10 60.3908867,11.0294418 59.0349063,13.086897 C57.6783021,15.1443521 57,17.0993733 57,20.5715202 C57,23.9791867 57.6824609,25.8921732 59.0488383,27.9369771 C60.4160475,29.9785163 62.2303288,31 64.4997921,31 C66.7759094,31 68.5980925,29.9785163 69.9565681,27.9369771 M64.4918903,30.1123743 C63.0679134,30.1123743 61.9483614,29.253928 61.1394727,27.5345868 C60.4075219,25.9811398 60.0413386,24.1781373 60.0413386,20.5098965 C60.0413386,16.8090074 60.4075219,15.0055969 61.1394727,13.480309 C61.9689475,11.7515814 63.0679134,10.8866055 64.4340828,10.8866055 C65.8902906,10.8866055 67.0275175,11.7515814 67.847635,13.480309 C68.5883193,15.0157994 68.9594932,16.8163533 68.9594932,20.5098965 C68.9594932,24.1781373 68.5883193,25.9811398 67.847635,27.5345868 C67.0381224,29.253928 65.9187784,30.1123743 64.4918903,30.1123743" id="Fill-3" fill="#DE0007"></path>
                <path d="M74.6455153,5.15781752 C75.0184267,5.25733732 75.2066332,6.13925209 75.2066332,7.79996219 L75.2066332,27.5628994 C75.2066332,28.4926684 75.1523597,29.1463228 75.0440316,29.5228041 C74.9365788,29.9009793 74.7527492,30.0892199 74.4977951,30.0892199 C74.1894429,30.0892199 73.5138693,29.9909706 72.4662596,29.7951072 L71,29.5304269 L71,30.4256816 L78.124271,31.8337808 L78.124271,29.7862139 C79.453315,31.2610126 81.1156594,32 83.1051768,32 C85.5054656,32 87.4214512,30.9417023 88.8529145,28.8242598 C90.2843778,26.703006 91,24.7117631 91,21.1688585 C91,17.5721708 90.2863474,15.5491663 88.8607929,13.4133021 C87.4312992,11.2787084 85.5131252,10.2119409 83.1051768,10.2119409 C81.107781,10.2119409 79.4467496,10.9496578 78.124271,12.4236095 L78.124271,7.79996219 C78.124271,6.13925209 78.3124774,5.25733732 78.6891092,5.15781752 C79.309534,5.00282074 79.9454967,4.92341664 80.5969975,4.92341664 L82.3284969,4.90922978 L82.3284969,4 L71,4 L71,4.90922978 L72.733469,4.92341664 C73.3849697,4.92341664 74.0226833,5.00282074 74.6455153,5.15781752 M79.5714911,13.8217567 C80.4420554,12.02913 81.5971178,11.1306991 83.0395234,11.1306991 C84.5709987,11.1306991 85.7654532,12.02913 86.6270448,13.8217567 C87.4096335,15.4153439 87.7998337,17.2856808 87.7998337,21.1150754 C87.7998337,24.9241426 87.4096335,26.7925738 86.6270448,28.4067002 C85.7779273,30.1908572 84.5994485,31.0806065 83.1014564,31.0806065 C81.5971178,31.0806065 80.4223594,30.1908572 79.5714911,28.4067002 C78.7996258,26.7925738 78.4168664,24.9241426 78.4168664,21.1150754 C78.4168664,17.2744584 78.7996258,15.4041215 79.5714911,13.8217567" id="Fill-5" fill="#DE0007"></path>
                <path d="M99.4981285,31 C101.778052,31 103.597582,29.9791185 104.957759,27.9373555 C106.318976,25.8931438 107,23.973609 107,20.5581554 C107,17.0927085 106.321679,15.1431778 104.964206,13.0873351 C103.609643,11.0276153 101.788241,10 99.4981285,10 C97.2119666,10 95.3895251,11.0276153 94.0349627,13.0873351 C92.6783209,15.1431778 92,17.098626 92,20.5730513 C92,23.9795266 92.6831037,25.8931438 94.0488951,27.9373555 C95.4136468,29.9791185 97.2315136,31 99.4981285,31 M96.1387556,13.4787104 C96.9678376,11.7526187 98.0670419,10.8878384 99.4347049,10.8878384 C100.890121,10.8878384 102.026756,11.7526187 102.846688,13.4787104 C103.588225,15.015032 103.960033,16.8176439 103.960033,20.507754 C103.960033,24.1788872 103.588225,25.9790505 102.846688,27.5349612 C102.036113,29.2541151 100.920065,30.1121616 99.4908504,30.1121616 C98.0670419,30.1121616 96.9499543,29.2541151 96.1387556,27.5349612 C95.4063687,25.9790505 95.0393434,24.1788872 95.0393434,20.507754 C95.0393434,16.8064209 95.4063687,15.0054414 96.1387556,13.4787104" id="Fill-7" fill="#DE0007"></path>
                <path d="M109.384289,5.73819277 C109.635017,5.73819277 109.810717,5.92668675 109.916052,6.30304217 C110.013969,6.6503012 110.064199,7.24150602 110.071617,8.0696988 L110.060172,8.0696988 L110.060172,10.2021687 L106.0284,10.2021687 L106.0284,11.1085843 L107.705285,11.1218675 C108.337932,11.1218675 108.955107,11.2000904 109.555326,11.3569578 C109.823009,11.4269578 109.989172,11.916747 110.060172,12.8202108 L110.060172,32 L116.959943,30.5976807 L116.959943,29.7068675 L115.540356,29.9714759 C114.527273,30.1646084 113.871949,30.2613855 113.575654,30.2613855 C113.328741,30.2613855 113.151134,30.0741566 113.044103,29.6996988 C112.947246,29.3496988 112.894684,28.759759 112.888114,27.9328313 L112.899559,27.9328313 L112.899559,13.9863855 L112.928171,13.9863855 C112.928171,12.3304217 113.108534,11.4537349 113.471166,11.3569578 C114.075201,11.2000904 114.692376,11.1218675 115.322903,11.1218675 L117,11.1085843 L117,10.2021687 L112.899559,10.2021687 L112.899559,4 L106,5.40189759 L106,6.29355422 L107.420435,6.0314759 C108.433942,5.83686747 109.087994,5.73819277 109.384289,5.73819277" id="Fill-9" fill="#DE0007"></path>
                <path d="M117.132701,21.1366969 L120.200272,21.1366969 L120.200272,21.1362896 L122.986145,21.1362896 L122.986145,21.132216 L126.776058,21.1366969 C127.283581,21.1635824 127.864756,21.143622 128.26688,21.3593168 C128.612919,21.5403864 128.875569,22.887308 128.830277,23.9645601 C128.830277,24.4788466 128.376935,26.722358 127.984335,27.5427723 C127.174373,29.2565177 126.054563,30.1133904 124.6266,30.1133904 C123.198636,30.1133904 122.078615,29.2565177 121.266959,27.5427723 C121.048966,27.0765538 120.865047,26.5331413 120.713298,25.9033694 L118.045099,25.9033694 C118.348385,26.6074837 118.722996,27.2684183 119.175068,27.9429993 C120.545464,29.9797777 122.362218,31 124.634219,31 C126.915743,31 128.737154,29.9797777 130.098873,27.9429993 C131.030954,26.5504539 131.641759,25.214531 131.937426,23.4207402 C132.008538,22.7856727 132.010655,22.1864525 131.985046,21.6788873 C131.94695,20.8916725 131.8388,20.3285033 131.814249,20.2062966 C131.813191,20.1893913 129.206581,20.1963163 129.206581,20.2062966 L124.6266,20.2062966 L122.851539,20.2162768 C122.605821,20.2162768 122.362218,20.2018156 122.124118,20.1783927 C121.806652,20.1496741 121.496382,20.1103643 121.191191,20.0466131 C121.099972,20.0280784 121.020394,20.01321 120.941874,19.9822509 C120.573824,19.843139 120.388001,19.0465549 120.38144,17.4641818 C120.555835,15.7457519 120.851713,14.3532065 121.287912,13.4584497 C122.110785,11.7432786 123.2507,10.886406 124.700675,10.886406 C126.151285,10.886406 127.289296,11.7432786 128.114285,13.4584497 C128.37503,14.0006401 128.584558,14.6471136 128.754297,15.4141643 L131.525143,15.4141643 C131.196036,14.5878433 130.771055,13.8311802 130.241309,13.0570007 C128.84996,11.0202223 127.002941,10 124.693056,10 C122.376398,10 120.523453,11.0202223 119.137395,13.0570007 C117.826682,14.9856262 117.137357,16.8067097 117.066245,19.8824488 C117.045504,19.9034276 117,21.1362896 117,21.1362896 L117.132701,21.1362896 L117.132701,21.1366969 Z" id="Fill-11" fill="#DE0007"></path>
                <path d="M56.1285929,36 C54.1045418,36 52.4310002,36.7577355 51.1042581,38.2723594 L51.1042581,36.1592558 L44,37.5688386 L44,38.4631698 L45.461839,38.1984495 C46.5061656,38.0038271 47.179467,37.9070453 47.4854536,37.9070453 C47.7416792,37.9070453 47.9241363,38.0951027 48.0306423,38.4726998 C48.1397673,38.8483909 48.1930204,39.5032031 48.1930204,40.432901 L48.1930204,60.1979806 C48.1930204,61.8612714 48.0077261,62.7399312 47.6316812,62.8386189 C47.0146882,62.9978747 46.3780528,63.0739024 45.7278858,63.0739024 L44,63.0872443 L44,64 L55.2968419,64 L55.2968419,63.0872443 L53.5696109,63.0739024 C52.9198804,63.0739024 52.2847727,62.9978747 51.6658155,62.8386189 C51.2912984,62.7399312 51.1042581,61.8612714 51.1042581,60.1979806 L51.1042581,55.5117952 C52.4388572,57.0298075 54.114363,57.7947434 56.1285929,57.7947434 C58.51734,57.7947434 60.4285558,56.7328972 61.8567843,54.6121696 C63.2858858,52.4905949 64,50.5020157 64,46.9570926 C64,43.3609197 63.2882865,41.3382445 61.8639866,39.2031161 C60.4423056,37.0650229 58.5291255,36 56.1285929,36 M59.6395818,54.1956056 C58.7912438,55.9804561 57.6164037,56.8733048 56.1192082,56.8733048 C54.6246317,56.8733048 53.4506646,55.9804561 52.5990528,54.1956056 C51.8319038,52.5816587 51.4477837,50.7144273 51.4477837,46.9020308 C51.4477837,43.0612563 51.8319038,41.1921189 52.5990528,39.611209 C53.4703071,37.8140756 54.6246317,36.9193208 56.0591894,36.9193208 C57.5875947,36.9193208 58.7785853,37.8140756 59.6395818,39.611209 C60.4193893,41.205249 60.8094022,43.0724804 60.8094022,46.9020308 C60.8094022,50.7144273 60.4193893,52.5816587 59.6395818,54.1956056" id="Fill-13" fill="#DE0007"></path>
                <path d="M71.1864584,63.1283524 L71.1864584,63.1374721 C69.8589317,63.0866041 68.8111369,62.2603526 68.0451598,60.653246 C67.3985016,59.3130447 67.0434654,57.1518611 66.9748362,54.1719246 L78.9874507,54.1719246 L78.9874507,53.3576302 C78.9874507,53.3576302 79.007059,52.8173343 78.9972548,52.56117 C78.8954583,49.6655408 78.2156328,47.9068432 76.9586128,46.0453962 C75.5876974,44.0151321 73.7664159,43 71.4901791,43 C69.2051812,43 67.5205323,44.1168682 66.0148617,46.0453962 C64.1476884,48.4325475 64,53.3730325 64,53.3730325 C64.0312899,56.5580626 64.6923415,59.1168682 65.988161,61.0417483 C67.3163135,63.0120246 69.0885741,64 71.309532,64 L71.3107836,63.9837871 C73.324811,63.9509559 74.9669056,63.0993717 76.2345642,61.4195096 L74.023619,61.4195096 C73.2855943,62.5582652 72.3383444,63.1283524 71.1864584,63.1283524 M68.132563,46.4448423 C68.9444319,44.7359995 70.0669053,43.8825914 71.4970629,43.8825914 C72.9276377,43.8825914 74.0492767,44.7359995 74.8598941,46.4448423 C75.4331253,47.6462204 75.8117332,49.9634534 75.8939214,51.7892319 C75.9427336,52.5702898 75.6492342,52.8807674 75.3836872,53.0260758 C74.8346535,53.3339188 74.1466927,53.2603526 73.5037893,53.2603526 L67.069749,53.2702831 C67.1492253,50.2520435 67.4859048,47.7868675 68.132563,46.4448423" id="Fill-15" fill="#DE0007"></path>
                <path d="M98.5348054,63.8404162 C98.1795023,63.7434136 97.9986244,62.8629771 97.9986244,61.1984714 L97.9986244,53.9156499 C97.9986244,53.9156499 97.7700814,48.8768083 95.9729593,46.2113541 C94.5629864,44.1228325 92.785638,43.0932916 90.5166516,43.0932916 C88.6171222,43.0932916 87.0362624,43.8322483 85.773448,45.3031723 L85.773448,42 L79,43.4082324 L79,44.3020121 L80.3945701,44.0381141 C81.3886697,43.8428381 82.0322534,43.7452001 82.3211584,43.7452001 C82.5655204,43.7452001 82.7409864,43.9339104 82.8425611,44.3115429 C82.9470498,44.6872692 82.9974208,45.3410838 82.9974208,46.2710806 L82.9974208,51.9351443 L82.9974208,53.9630922 L82.9974208,54.901349 L82.9974208,57.0432432 L82.9974208,61.1311202 C82.9974208,62.7926608 82.8211222,63.6733091 82.4639457,63.7739122 C81.8726063,63.9276762 81.2664887,64.0073116 80.6472579,64.0073116 L79,64.0225609 L79,64.9315899 L89.7723258,64.9315899 L89.7723258,64.0225609 L88.1246516,64.0073116 C87.5072941,64.0073116 86.8993032,63.9276762 86.3079638,63.7739122 C85.9526606,63.6733091 85.773448,62.7926608 85.773448,61.1311202 L85.773448,53.8747732 C85.8462986,50.6749574 86.5131946,48.1071412 87.1669774,46.6895898 C87.9762443,44.9037248 89.0981448,44.0137575 90.5233122,44.0137575 C91.9499367,44.0137575 93.3311855,44.7006124 94.1433665,46.4835121 C94.7738371,47.8775542 95.1355928,50.1037433 95.2642262,53.0851973 L95.2242624,61.1984714 C95.2242624,62.8629771 95.0460905,63.7434136 94.6880814,63.8404162 C94.0986154,63.9979925 93.4922896,64.0755099 92.873267,64.0755099 L91.2253846,64.090971 L91.2253846,65 L102,65 L102,64.090971 L100.351493,64.0755099 C99.7312217,64.0755099 99.1251041,63.9979925 98.5348054,63.8404162" id="Fill-17" fill="#DE0007"></path>
                <path d="M108.575107,43.8868957 C110.058814,43.8868957 111.217941,44.7480783 112.053122,46.4779943 C112.54296,47.4763131 112.875168,48.5917691 113.046145,50.2576065 L116,50.2576065 C115.677114,48.6385015 115.083038,47.3830523 114.211627,46.0857684 C112.829616,44.0258685 110.97281,43 108.641421,43 C106.311939,43 104.454498,44.0258685 103.074182,46.0857684 C101.690264,48.141995 101,50.0959817 101,53.5694864 C101,56.9789126 101.696832,58.8924931 103.086682,60.9368835 C104.480134,62.9776007 106.331008,64 108.641421,64 C110.866453,64 112.657792,63.0600457 114.02476,61.1874836 L111.698032,61.1874836 C110.912004,62.4692581 109.890592,63.1129002 108.633794,63.1129002 C107.181655,63.1129002 106.044563,62.2533502 105.217432,60.5328215 C104.471447,58.9784073 104.098349,57.1791069 104.098349,53.5054079 C104.098349,49.8059958 104.471447,48.0040426 105.217432,46.4779943 C106.061512,44.7480783 107.181655,43.8868957 108.575107,43.8868957" id="Fill-19" fill="#DE0007"></path>
                <path d="M123.46232,63.8574812 C123.099585,63.7602366 122.915773,62.8944264 122.915773,61.2544163 L122.915773,42 L116,43.3885517 L116,44.2702215 L117.423317,44.0091637 C118.440124,43.8175962 119.095045,43.7222298 119.394031,43.7222298 C119.643504,43.7222298 119.820516,43.9073283 119.925278,44.279612 C120.030252,44.649809 120.083589,45.2948365 120.083589,46.2109384 L120.083589,61.2544163 C120.083589,62.8944264 119.90339,63.7602366 119.537892,63.8574812 C118.933333,64.0127385 118.315387,64.0874457 117.682353,64.0874457 L116,64.1022619 L116,65 L127,65 L127,64.1022619 L125.31871,64.0874457 C124.684826,64.0874457 124.068792,64.0127385 123.46232,63.8574812" id="Fill-21" fill="#DE0007"></path>
                <path d="M136.462176,62.8339102 C136.098598,62.7365763 135.91479,61.8471532 135.91479,60.1771422 L135.91479,36 L129,37.4184764 L129,38.3174837 L130.423502,38.054022 C131.440076,37.8555205 132.095198,37.7573347 132.392265,37.7573347 C132.641734,37.7573347 132.818742,37.9485947 132.924564,38.3260031 C133.028262,38.7057544 133.082448,39.3643023 133.082448,40.299517 L133.082448,60.1771422 C133.082448,61.8471532 132.901615,62.7365763 132.535912,62.8339102 C131.931577,62.9902407 131.313642,63.068619 130.68147,63.068619 L129,63.082037 L129,64 L140,64 L140,63.082037 L138.317042,63.068619 C137.683808,63.068619 137.065873,62.9902407 136.462176,62.8339102" id="Fill-23" fill="#DE0007"></path>
                <path d="M120,37.5006039 C120,38.3262882 120.672901,39 121.500928,39 C122.329987,39 123,38.3262882 123,37.5006039 C123,36.6731079 122.329987,36 121.500928,36 C120.672901,36 120,36.6731079 120,37.5006039" id="Fill-25" fill="#DE0007"></path>
                <path d="M154.816757,52.2060872 C154.814005,52.189589 152.206928,52.1977362 152.206928,52.2060872 L147.626499,52.2060872 L145.850419,52.2179007 C145.605522,52.2179007 145.362954,52.2016062 145.121021,52.1785901 C144.806276,52.1512968 144.494281,52.1111715 144.189907,52.0472154 C144.095928,52.0280693 144.020999,52.0144226 143.942259,51.983463 C143.573539,51.8447557 143.387486,51.0442862 143.379019,49.4655487 C143.552584,47.745456 143.851243,46.353902 144.286638,45.4603499 C145.109803,43.7429051 146.248772,42.8860158 147.70164,42.8860158 C149.150486,42.8860158 150.290302,43.7429051 151.113679,45.4603499 C151.374238,45.9996993 151.585903,46.6467964 151.752695,47.413251 L154.521696,47.413251 C154.19552,46.5883397 153.77092,45.8345134 153.241758,45.05706 C151.851331,43.0200384 150.003073,42 147.692962,42 C145.374384,42 143.523374,43.0200384 142.137816,45.05706 C140.828033,46.986945 140.136736,48.8058234 140.065616,51.8830479 C140.044661,51.9048418 140,53.1350798 140,53.1350798 L140.131867,53.1350798 L140.131867,53.136913 L143.200585,53.136913 C143.200585,53.136913 143.197834,53.136913 143.197834,53.1350798 L145.983344,53.1350798 L145.983344,53.1322283 L149.776591,53.1387461 C150.282894,53.1652247 150.866031,53.1440418 151.267982,53.3587224 C151.610668,53.542036 151.875249,54.8871506 151.831434,55.9640162 C151.831434,56.476887 151.37826,58.7226824 150.98541,59.5412795 C150.173675,61.2568912 149.055661,62.1145953 147.624594,62.1145953 C146.197337,62.1145953 145.079323,61.2568912 144.268435,59.5412795 C144.048515,59.0758666 143.86352,58.532851 143.712815,57.904289 L141.047106,57.904289 C141.348517,58.6086206 141.724223,59.2673275 142.174645,59.9427363 C143.543906,61.9813874 145.362954,63 147.634966,63 C149.913962,63 151.737455,61.9813874 153.100577,59.9427363 C154.029575,58.5501639 154.64425,57.2160482 154.938041,55.422019 C155.007255,54.7840876 155.01043,54.1854668 154.986512,53.6780955 C154.946719,52.8941243 154.840463,52.3301294 154.816757,52.2060872" id="Fill-27" fill="#DE0007"></path>
                <g id="Group-31" transform="translate(138.000000, 10.000000)">
                    <mask id="mask-2" fill="white">
                        <use xlink:href="#path-1"></use>
                    </mask>
                    <g id="Clip-30"></g>
                    <path d="M13.1848694,10.3181769 L13.1848694,11.1787212 L13.4538002,11.1931332 C14.1830123,11.2388758 14.596702,11.261016 14.6898851,11.261016 C15.0957734,11.261016 15.3404333,11.3485325 15.4355668,11.5206414 C15.5287499,11.6967188 15.576425,12.1457892 15.576425,12.8720301 C15.576425,14.5724406 15.1588346,16.0349482 14.3238705,17.2553755 C12.2714581,14.4905636 10.6615573,12.1574859 9.4885335,10.2619909 C9.37628035,10.0677418 9.1983656,9.7776214 8.95392245,9.38787003 C12.0859587,8.27960592 13.6510017,6.57439142 13.6510017,4.28350551 C13.6510017,3.04177349 13.2024225,2.04650804 12.3072145,1.29311403 C11.4120064,0.537631323 10.2257637,0.160829883 8.74415208,0.160829883 C7.33903735,0.160829883 6.17208133,0.589431078 5.24480095,1.44621573 C4.31557023,2.29965846 3.85268851,3.37116144 3.85268851,4.65654729 C3.85268851,5.85107469 4.39055014,7.26616879 5.46822373,8.90370942 C1.96432179,10.0132267 0.21074554,12.0900209 0.21074554,15.1328388 C0.21074554,16.983009 0.886431496,18.5449387 2.2419208,19.8221786 C3.59632659,21.0996274 5.25260233,21.7360542 7.21204826,21.7360542 C9.02933576,21.7360542 11.798608,20.7804741 13.7480855,19.2709708 L14.7200071,18.3536138 C16.4473621,16.1907652 17.364674,14.3706722 17.5432389,12.5113117 C17.6093339,11.8270536 17.5928643,11.4481635 17.6918984,11.3769388 C17.7909326,11.3078029 18.3870878,11.2478572 19.4842649,11.1931332 L19.7805005,11.1787212 L19.7805005,10.3181769 L13.1848694,10.3181769 Z M8.88479358,1.00884199 C10.3354163,1.00884199 11.0615946,1.95293429 11.0615946,3.84237211 C11.0615946,5.92689449 10.2170955,7.54542795 8.51986248,8.69463057 C8.28668798,8.27751722 8.11310734,7.96692757 7.99825373,7.7628616 C7.08094178,6.15999339 6.62174404,4.84975202 6.62174404,3.83025765 C6.62174404,1.94875689 7.37587718,1.00884199 8.88479358,1.00884199 L8.88479358,1.00884199 Z M8.6041607,20.1826882 C7.00032755,20.1826882 5.66325816,19.6270941 4.58840173,18.5182034 C3.5176627,17.4082683 2.97871755,16.0251313 2.97871755,14.3683746 C2.97871755,12.3337722 3.94565492,10.7618167 5.87519558,9.65229942 C7.68273136,12.6679642 9.84869708,15.8066533 12.3713591,19.0735886 C11.1692969,19.8111085 9.91500879,20.1826882 8.6041607,20.1826882 L8.6041607,20.1826882 Z" id="Fill-29" fill="#DE0007" mask="url(#mask-2)"></path>
                </g>
                <g id="Group-34">
                    <mask id="mask-4" fill="white">
                        <use xlink:href="#path-3"></use>
                    </mask>
                    <g id="Clip-33"></g>
                    <path d="M35.1752336,32.6551568 L33.1197077,56.5809948 L28.7607678,56.5809948 L30.8160868,32.6551568 L35.1752336,32.6551568 Z M29.8433641,64.2670775 C28.2031232,64.2628629 26.8757426,62.9110075 26.8726388,61.2342011 C26.8757426,59.5597127 28.2031232,58.2078574 29.8433641,58.20575 C31.4823636,58.2078574 32.8095373,59.5597127 32.8140895,61.2342011 C32.8095373,62.9110075 31.4823636,64.2628629 29.8433641,64.2670775 L29.8433641,64.2670775 Z M25.0072708,56.5809948 L21.2245982,56.5809948 L15.5978702,56.5809948 L14.1620645,56.5809948 L9.81367743,56.5809948 L7.75815152,32.6551568 L14.1620645,32.6551568 L16.259181,32.6551568 L20.5637013,32.6551568 L22.3696838,32.6551568 L29.3556578,32.6551568 L27.3001319,56.5809948 L25.0072708,56.5809948 Z M22.2196681,64.1490668 C20.5775649,64.145695 19.2497704,62.7917323 19.2454252,61.1151367 C19.2497704,59.4427557 20.5775649,58.088793 22.2196681,58.0854212 C23.8570122,58.088793 25.1854274,59.4427557 25.1868758,61.1151367 C25.1854274,62.7917323 23.8570122,64.145695 22.2196681,64.1490668 L22.2196681,64.1490668 Z M14.5912129,64.2670775 C12.9520065,64.2628629 11.6231775,62.9110075 11.6215222,61.2342011 C11.6231775,59.5597127 12.9520065,58.2078574 14.5912129,58.20575 C16.2318677,58.2078574 17.5606968,59.5597127 17.562559,61.2342011 C17.5606968,62.9110075 16.2318677,64.2628629 14.5912129,64.2670775 L14.5912129,64.2670775 Z M6.96648229,64.2670775 C5.32686207,64.2628629 3.99865382,62.9110075 3.99575696,61.2342011 C3.99865382,59.5597127 5.32686207,58.2078574 6.96648229,58.20575 C8.60527484,58.2078574 9.93431077,59.5597127 9.93844913,61.2342011 C9.93431077,62.9110075 8.60527484,64.2628629 6.96648229,64.2670775 L6.96648229,64.2670775 Z M3.70296764,56.5809948 L1.64764865,32.6551568 L6.29751559,32.6551568 L8.35304149,56.5809948 L3.70296764,56.5809948 Z M3.31085755,27.9709727 L1.47776877,27.9724479 C1.49183921,27.2742878 1.51480713,26.3957399 1.54294801,26.0613058 C2.64292544,13.0150059 10.8091611,7.16125096 18.4119584,7.14755328 C28.856571,7.16778369 34.4092223,16.6002149 35.2786928,25.9395019 C35.3124204,26.3000669 35.3529764,27.2121214 35.3798758,27.87825 L33.5875499,27.87825 L3.31085755,27.9709727 Z M32.2564448,29.3641319 L33.589826,29.3599172 L36.890379,29.3599172 L36.8630658,28.5924258 C36.8601689,28.5047607 36.7865061,26.4364114 36.7273274,25.7995748 C35.4800242,12.4055647 27.2148816,6.13497884 19.2843258,5.6930707 L19.2843258,3.64263381 L21.4126869,3.64263381 C21.7690001,4.62696996 22.695787,5.33208423 23.7835562,5.33208423 C25.1779783,5.33208423 26.3123042,4.17536808 26.3123042,2.7535492 C26.3123042,1.33151958 25.1779783,0.174803433 23.7835562,0.174803433 C22.695787,0.174803433 21.7690001,0.879917704 21.4126869,1.86446459 L19.2843258,1.86446459 L19.2843258,1.00361826 C19.2843258,0.512819957 18.8934572,0.114533654 18.4113377,0.114533654 C17.9290112,0.114533654 17.5385565,0.512819957 17.5385565,1.00361826 L17.5385565,1.86446459 L15.4099884,1.86446459 C15.0536752,0.879917704 14.1268884,0.174803433 13.039326,0.174803433 C11.644697,0.174803433 10.5101643,1.33151958 10.5101643,2.7535492 C10.5101643,4.17536808 11.644697,5.33208423 13.039326,5.33208423 C14.1268884,5.33208423 15.0534683,4.62696996 15.4099884,3.64263381 L17.5385565,3.64263381 L17.5385565,5.6911741 C13.3910871,5.91771261 9.4766076,7.69735696 6.43553006,10.7597361 C2.81611601,14.4045826 0.62298947,19.6520573 0.0932787476,25.9348657 C0.0403076753,26.566434 0.0115460384,28.6164494 0.0103045289,28.7034824 L-4.13836502e-05,29.4553795 L3.31375441,29.4528507 L4.56623058,29.4488467 L4.56623058,31.1734897 L0.0597579909,31.1734897 L2.36958643,58.062662 L3.82753243,58.062662 C3.03462169,58.8779899 2.54298392,59.9978277 2.54091474,61.2316723 C2.5450531,63.7183275 4.52857146,65.7424227 6.96255085,65.7489555 C8.58644528,65.7445301 10.0073529,64.8465946 10.7789511,63.5156019 C11.5488939,64.8470161 12.9679392,65.7445301 14.5876953,65.7489555 C16.2376615,65.7445301 17.6767779,64.81941 18.4388578,63.4553321 C19.217905,64.7566114 20.6208108,65.627573 22.2167712,65.630734 C23.817077,65.627573 25.2206035,64.7555578 25.9975815,63.4549106 C26.7598684,64.8200422 28.1967087,65.7445301 29.8396396,65.7489555 C32.2789989,65.7424227 34.2627241,63.7189597 34.2689317,61.2379943 C34.265621,60.0003565 33.7733625,58.8786221 32.9802448,58.062662 L34.4532959,58.062662 L36.7631243,31.1734897 L32.2564448,31.1734897 L32.2564448,29.3641319 Z" id="Fill-32" fill="#242E41" mask="url(#mask-4)"></path>
                </g>
                <path d="M22.3592931,43.0235461 L14.6664761,43.0235461 L17.3458644,38.6292288 L19.6571792,38.6292288 L22.3592931,43.0235461 Z M21.6742788,49.1360795 L18.5014203,51.7350488 L15.3456061,49.1606913 C14.6321848,48.3296013 14.6321848,46.8709086 15.3456061,46.0395987 C15.6964325,45.6317449 16.1444514,45.4152923 16.6352837,45.4152923 C17.1204346,45.4152923 17.5796134,45.6378979 17.9249613,46.0395987 L18.5014203,46.7256546 L19.0778794,46.0426752 C19.4315465,45.6378979 19.8911311,45.4152923 20.367557,45.4152923 C20.8470265,45.4152923 21.3035675,45.6378979 21.6517561,46.0426752 C21.9853354,46.4228407 22.1939239,47.0376979 22.1939239,47.6466219 C22.1939239,48.2151121 21.9997418,48.7528375 21.6742788,49.1360795 L21.6742788,49.1360795 Z M13,43.0112402 L13.7905261,54 L23.2238803,54 L24,42.9617967 L18.4900576,34 L13,43.0112402 Z" id="Fill-35" fill="#242E41"></path>
                <path d="M25.4933635,23.5789025 C23.2296126,23.5729906 21.4044812,21.748661 21.3985595,19.4988788 C21.4044812,17.2482811 23.2296126,15.424767 25.4933635,15.4210975 C27.7544599,15.424767 29.579387,17.2482811 29.58245,19.4988788 C29.579387,21.748661 27.7544599,23.5729906 25.4933635,23.5789025 M25.4998979,14 C22.4614157,14 20,16.4668915 20,19.4996942 C20,22.542486 22.4614157,25 25.4998979,25 C28.5381759,25 31,22.542486 31,19.4996942 C31,16.4668915 28.5381759,14 25.4998979,14" id="Fill-37" fill="#242E41"></path>
                <path d="M26.0013528,17 C24.8949477,17.001876 24.0027057,17.8958833 24,18.9993747 C24.0027057,20.1026576 24.8949477,20.9970818 26.0013528,21 C27.1065092,20.9970818 27.9985431,20.1026576 28,18.9993747 C27.9985431,17.8958833 27.1065092,17.001876 26.0013528,17" id="Fill-39" fill="#242E41"></path>
                <path d="M11.5015998,20.7038011 C10.2783738,20.7006067 9.29249012,19.715022 9.2891022,18.4994363 C9.29249012,17.2834747 10.2783738,16.2982659 11.5015998,16.2961989 C12.7231319,16.2982659 13.7092038,17.2834747 13.7107096,18.4994363 C13.7092038,19.715022 12.7231319,20.7006067 11.5015998,20.7038011 M11.4999059,15 C9.56653491,15 8,16.5697949 8,18.4998121 C8,20.4362182 9.56653491,22 11.4999059,22 C13.4334651,22 15,20.4362182 15,18.4998121 C15,16.5697949 13.4334651,15 11.4999059,15" id="Fill-41" fill="#242E41"></path>
            </g>
        </g>
    </g>
</svg>